<svg width="30" height="38" viewBox="0 0 30 38" fill="none" xmlns="http://www.w3.org/2000/svg">
<path d="M26.2973 17.3867C25.4826 18.0685 24.7913 18.4468 24.7913 18.4468L24.7982 20.6047C25.3823 21.2502 25.9582 21.7866 26.3884 22.7616C27.2046 21.3025 27.0498 19.1523 26.2973 17.3867ZM25.6337 24.4487C25.6337 24.4487 25.4676 23.5603 24.7591 22.7297L23.144 22.7695C23.144 22.7695 20.9644 24.6312 19.635 24.674C19.635 24.674 20.3677 26.0289 20.7356 26.7356C21.4688 26.5777 22.755 26.0025 23.2736 25.4043C23.2736 25.4043 23.616 26.5026 23.5505 27.7985C24.2781 27.3764 25.2828 26.2417 25.6337 24.4487M23.5505 20.5517L23.5477 18.4041C23.5477 18.4041 22.583 18.0951 21.5506 17.3002C19.4799 17.6116 16.9713 19.6826 16.9713 19.6826C16.9713 19.6826 17.8199 21.2806 18.7454 23.0041C20.3761 23.2271 22.7759 21.1847 23.5505 20.5517M29.0727 29.5065L27.7407 28.0392C27.3596 32.0033 25.4084 35.3674 21.8214 37.7133L21.2752 35.5749C18.2308 37.7625 13.0057 39.1792 8.51782 36.6576C9.07399 33.8313 9.56858 30.9689 8.5073 27.5391C6.02265 31.3639 3.82143 32.8623 3.82143 32.8623C2.14377 30.0614 2.29455 24.4378 2.79465 22.7829L0 23.6436C0 21.7552 1.36972 17.7455 3.35048 15.4957L1.60399 15.2186L1.60365 15.2189C2.7893 12.8083 4.55735 10.7321 6.72545 9.17152L6.72752 9.17032C6.07716 10.193 6.06767 12.7112 7.97494 13.671C7.165 12.2606 7.06788 10.5183 7.91145 9.61439C8.75899 8.70653 10.1805 9.01789 11.088 9.72463C10.8182 8.93799 10.0264 7.94749 8.84007 7.88011L8.83903 7.88045C11.0799 6.73479 13.6213 6.08823 16.3146 6.08823C16.8176 6.08823 17.3153 6.11068 17.8068 6.15492L17.8073 6.15527C18.5898 6.468 19.7392 7.56377 20.2752 8.24583C20.2752 8.24583 20.313 7.44153 19.8632 6.4716C22.7785 7.17543 24.1667 8.35419 24.7497 8.9253C24.8689 10.1752 25.2462 10.9272 25.7453 12.1182C24.801 11.0663 22.4283 9.37109 21.2966 8.96457C21.2966 8.96457 21.2031 10.0497 20.8141 10.5721C18.5596 8.95394 17.4514 8.54862 17.4514 8.54862C14.9747 8.89959 13.3831 9.84962 12.5187 10.5953L13.272 11.2329C11.7793 11.6897 10.8103 12.965 10.8103 12.965C10.82 12.9869 12.1433 13.1748 12.1433 13.1748C12.1433 13.1748 12.0079 14.7193 13.9539 15.6877C15.619 16.5163 18.0165 15.4885 20.2728 16.3881C18.7883 14.6859 17.7654 13.9246 17.7654 13.9246C17.7654 13.9246 17.1747 13.8025 16.7595 13.8053C16.2414 13.8087 15.4703 13.9111 14.6212 13.5827C14.2172 13.4264 13.7455 13.1484 13.3752 12.9177C13.3752 12.9177 14.4163 11.8546 15.9374 11.6196C15.9374 11.6196 17.3096 12.0031 18.3969 12.8031C19.1199 12.1038 19.8743 12.1252 19.8743 12.1252C19.8743 12.1252 19.1277 12.8199 19.3531 13.659C20.4408 14.6219 21.6182 15.9999 21.6182 15.9999C22.8183 15.3453 25.4272 15.4955 25.9632 16.1134C25.2844 15.2399 24.3054 14.5083 23.5477 13.8831C23.4556 13.5556 22.6293 12.4108 22.49 12.3064C22.49 12.3064 23.2762 12.5478 23.9766 13.173C24.1794 12.8878 24.5553 12.5967 25.0699 12.4688C25.5988 12.9091 25.6916 13.585 25.6773 13.6985C25.4382 13.9798 25.2057 14.0964 25.2057 14.0964L26.4757 15.4636L26.6028 14.4834C29.5301 18.6379 31.1276 23.4519 29.0727 29.5065M5.92483 3.17228C7.61525 3.9416 8.70016 4.91461 8.89769 5.06172C8.80729 4.62708 8.47504 2.53875 8.28321 1.24048C9.26824 1.92082 11.555 3.4977 12.3065 4.01052C12.6127 3.07146 13.6752 0.00463018 13.6752 0.00463018C13.6752 0.00463018 15.5928 3.09272 15.9209 3.59491C16.3218 3.1781 18.6157 0.642445 19.2086 -5.08203e-07C19.309 1.45909 19.4447 3.54742 19.4767 3.86067C19.5946 3.70516 20.472 2.48182 21.9444 1.35364C21.3059 2.60236 21.0023 4.32686 20.8657 5.71257C19.4178 5.31016 17.8916 5.0943 16.3146 5.0943C13.2898 5.0943 10.4515 5.88659 7.99684 7.27264C7.55039 5.93632 6.85224 4.27182 5.92483 3.17228Z" fill="#3B175C"/>
</svg>
